<?xml version="1.0"?>
<svg width="1120" height="69" xmlns="http://www.w3.org/2000/svg" xmlns:svg="http://www.w3.org/2000/svg">
 <g class="layer">
  <title>Layer 1</title>
  <path d="m28.89,33.18a7.72,7.72 0 0 1 8.22,0l7.78,4.84c2.55,1.58 4.11,4.49 4.11,7.64l0,9.68c0,3.15 -1.56,6.07 -4.11,7.64l-7.78,4.84a7.72,7.72 0 0 1 -8.22,0l-7.78,-4.84c-2.54,-1.58 -4.11,-4.49 -4.11,-7.64l0,-9.68c0,-3.15 1.57,-6.07 4.11,-7.64l7.78,-4.84zm34,0a7.72,7.72 0 0 1 8.22,0l7.78,4.84c2.55,1.58 4.11,4.49 4.11,7.64l0,9.68c0,3.15 -1.56,6.07 -4.11,7.64l-7.78,4.84a7.72,7.72 0 0 1 -8.22,0l-7.78,-4.84c-2.55,-1.58 -4.11,-4.49 -4.11,-7.64l0,-9.68c0,-3.15 1.56,-6.07 4.11,-7.64l7.78,-4.84zm34,0a7.72,7.72 0 0 1 8.22,0l7.78,4.84c2.55,1.58 4.11,4.49 4.11,7.64l0,9.68c0,3.15 -1.56,6.07 -4.11,7.64l-7.78,4.84a7.72,7.72 0 0 1 -8.22,0l-7.78,-4.84c-2.54,-1.58 -4.11,-4.49 -4.11,-7.64l0,-9.68c0,-3.15 1.56,-6.07 4.11,-7.64l7.78,-4.84zm34,0a7.72,7.72 0 0 1 8.22,0l7.78,4.84c2.55,1.58 4.11,4.49 4.11,7.64l0,9.68c0,3.15 -1.56,6.07 -4.11,7.64l-7.78,4.84a7.72,7.72 0 0 1 -8.22,0l-7.78,-4.84c-2.55,-1.58 -4.11,-4.49 -4.11,-7.64l0,-9.68c0,-3.15 1.56,-6.07 4.11,-7.64l7.78,-4.84zm34,0a7.72,7.72 0 0 1 8.22,0l7.78,4.84c2.55,1.58 4.11,4.49 4.11,7.64l0,9.68c0,3.15 -1.56,6.07 -4.11,7.64l-7.78,4.84a7.72,7.72 0 0 1 -8.22,0l-7.78,-4.84c-2.55,-1.58 -4.11,-4.49 -4.11,-7.64l0,-9.68c0,-3.15 1.56,-6.07 4.11,-7.64l7.78,-4.84zm34,0a7.72,7.72 0 0 1 8.22,0l7.78,4.84c2.55,1.58 4.11,4.49 4.11,7.64l0,9.68c0,3.15 -1.56,6.07 -4.11,7.64l-7.78,4.84a7.72,7.72 0 0 1 -8.22,0l-7.78,-4.84c-2.55,-1.58 -4.11,-4.49 -4.11,-7.64l0,-9.68c0,-3.15 1.56,-6.07 4.11,-7.64l7.78,-4.84zm34,0a7.72,7.72 0 0 1 8.22,0l7.78,4.84c2.55,1.58 4.11,4.49 4.11,7.64l0,9.68c0,3.15 -1.56,6.07 -4.11,7.64l-7.78,4.84a7.72,7.72 0 0 1 -8.22,0l-7.78,-4.84c-2.55,-1.58 -4.11,-4.49 -4.11,-7.64l0,-9.68c0,-3.15 1.56,-6.07 4.11,-7.64l7.78,-4.84zm34,0a7.72,7.72 0 0 1 8.22,0l7.78,4.84c2.55,1.58 4.11,4.49 4.11,7.64l0,9.68c0,3.15 -1.56,6.07 -4.11,7.64l-7.78,4.84a7.72,7.72 0 0 1 -8.22,0l-7.78,-4.84c-2.55,-1.58 -4.11,-4.49 -4.11,-7.64l0,-9.68c0,-3.15 1.56,-6.07 4.11,-7.64l7.78,-4.84zm34,0a7.72,7.72 0 0 1 8.22,0l7.78,4.84c2.55,1.58 4.11,4.49 4.11,7.64l0,9.68c0,3.15 -1.56,6.07 -4.11,7.64l-7.78,4.84a7.72,7.72 0 0 1 -8.22,0l-7.78,-4.84c-2.55,-1.58 -4.11,-4.49 -4.11,-7.64l0,-9.68c0,-3.15 1.56,-6.07 4.11,-7.64l7.78,-4.84zm34,0a7.72,7.72 0 0 1 8.22,0l7.78,4.84c2.55,1.58 4.11,4.49 4.11,7.64l0,9.68c0,3.15 -1.56,6.07 -4.11,7.64l-7.78,4.84a7.72,7.72 0 0 1 -8.22,0l-7.78,-4.84c-2.55,-1.58 -4.11,-4.49 -4.11,-7.64l0,-9.68c0,-3.15 1.56,-6.07 4.11,-7.64l7.78,-4.84zm34,0a7.72,7.72 0 0 1 8.22,0l7.78,4.84c2.55,1.58 4.11,4.49 4.11,7.64l0,9.68c0,3.15 -1.56,6.07 -4.11,7.64l-7.78,4.84a7.72,7.72 0 0 1 -8.22,0l-7.78,-4.84c-2.55,-1.58 -4.11,-4.49 -4.11,-7.64l0,-9.68c0,-3.15 1.56,-6.07 4.11,-7.64l7.78,-4.84zm34,0a7.72,7.72 0 0 1 8.22,0l7.78,4.84c2.55,1.58 4.11,4.49 4.11,7.64l0,9.68c0,3.15 -1.56,6.07 -4.11,7.64l-7.78,4.84a7.72,7.72 0 0 1 -8.22,0l-7.78,-4.84c-2.55,-1.58 -4.11,-4.49 -4.11,-7.64l0,-9.68c0,-3.15 1.56,-6.07 4.11,-7.64l7.78,-4.84zm34,0a7.72,7.72 0 0 1 8.22,0l7.78,4.84c2.55,1.58 4.11,4.49 4.11,7.64l0,9.68c0,3.15 -1.56,6.07 -4.11,7.64l-7.78,4.84a7.72,7.72 0 0 1 -8.22,0l-7.78,-4.84c-2.55,-1.58 -4.11,-4.49 -4.11,-7.64l0,-9.68c0,-3.15 1.56,-6.07 4.11,-7.64l7.78,-4.84zm34,0a7.72,7.72 0 0 1 8.22,0l7.78,4.84c2.55,1.58 4.11,4.49 4.11,7.64l0,9.68c0,3.15 -1.56,6.07 -4.11,7.64l-7.78,4.84a7.72,7.72 0 0 1 -8.22,0l-7.78,-4.84c-2.55,-1.58 -4.11,-4.49 -4.11,-7.64l0,-9.68c0,-3.15 1.56,-6.07 4.11,-7.64l7.78,-4.84zm34,0a7.72,7.72 0 0 1 8.22,0l7.78,4.84c2.55,1.58 4.11,4.49 4.11,7.64l0,9.68c0,3.15 -1.57,6.07 -4.11,7.64l-7.78,4.84a7.72,7.72 0 0 1 -8.22,0l-7.78,-4.84c-2.55,-1.58 -4.11,-4.49 -4.11,-7.64l0,-9.68c0,-3.15 1.56,-6.07 4.11,-7.64l7.78,-4.84zm34,0a7.72,7.72 0 0 1 8.22,0l7.78,4.84c2.55,1.58 4.11,4.49 4.11,7.64l0,9.68c0,3.15 -1.57,6.07 -4.11,7.64l-7.78,4.84a7.72,7.72 0 0 1 -8.22,0l-7.78,-4.84c-2.54,-1.58 -4.11,-4.49 -4.11,-7.64l0,-9.68c0,-3.15 1.57,-6.07 4.11,-7.64l7.78,-4.84zm-527,-32a7.72,7.72 0 0 1 8.22,0l7.78,4.84c2.54,1.57 4.11,4.49 4.11,7.64l0,9.68c0,3.15 -1.57,6.07 -4.11,7.64l-7.78,4.84a7.72,7.72 0 0 1 -8.22,0l-7.78,-4.84c-2.54,-1.58 -4.11,-4.49 -4.11,-7.64l0,-9.67c0,-3.16 1.56,-6.07 4.11,-7.65l7.78,-4.84zm34,0a7.72,7.72 0 0 1 8.22,0l7.78,4.84c2.55,1.57 4.11,4.49 4.11,7.64l0,9.68c0,3.15 -1.56,6.07 -4.11,7.64l-7.78,4.84a7.72,7.72 0 0 1 -8.22,0l-7.78,-4.84c-2.55,-1.58 -4.11,-4.49 -4.11,-7.64l0,-9.67c0,-3.16 1.56,-6.07 4.11,-7.65l7.78,-4.84zm34,0a7.72,7.72 0 0 1 8.22,0l7.78,4.84c2.55,1.57 4.11,4.49 4.11,7.64l0,9.68c0,3.15 -1.56,6.07 -4.11,7.64l-7.78,4.84a7.72,7.72 0 0 1 -8.22,0l-7.78,-4.84c-2.54,-1.58 -4.11,-4.49 -4.11,-7.64l0,-9.67c0,-3.16 1.56,-6.07 4.11,-7.65l7.78,-4.84zm34,0a7.72,7.72 0 0 1 8.22,0l7.78,4.84c2.55,1.57 4.11,4.49 4.11,7.64l0,9.68c0,3.15 -1.56,6.07 -4.11,7.64l-7.78,4.84a7.72,7.72 0 0 1 -8.22,0l-7.78,-4.84c-2.55,-1.58 -4.11,-4.49 -4.11,-7.64l0,-9.67c0,-3.16 1.56,-6.07 4.11,-7.65l7.78,-4.84zm34,0a7.72,7.72 0 0 1 8.22,0l7.78,4.84c2.55,1.57 4.11,4.49 4.11,7.64l0,9.68c0,3.15 -1.56,6.07 -4.11,7.64l-7.78,4.84a7.72,7.72 0 0 1 -8.22,0l-7.78,-4.84c-2.55,-1.58 -4.11,-4.49 -4.11,-7.64l0,-9.67c0,-3.16 1.56,-6.07 4.11,-7.65l7.78,-4.84zm34,0a7.72,7.72 0 0 1 8.22,0l7.78,4.84c2.55,1.57 4.11,4.49 4.11,7.64l0,9.68c0,3.15 -1.56,6.07 -4.11,7.64l-7.78,4.84a7.72,7.72 0 0 1 -8.22,0l-7.78,-4.84c-2.55,-1.58 -4.11,-4.49 -4.11,-7.64l0,-9.67c0,-3.16 1.56,-6.07 4.11,-7.65l7.78,-4.84zm34,0a7.72,7.72 0 0 1 8.22,0l7.78,4.84c2.55,1.57 4.11,4.49 4.11,7.64l0,9.68c0,3.15 -1.56,6.07 -4.11,7.64l-7.78,4.84a7.72,7.72 0 0 1 -8.22,0l-7.78,-4.84c-2.55,-1.58 -4.11,-4.49 -4.11,-7.64l0,-9.67c0,-3.16 1.56,-6.07 4.11,-7.65l7.78,-4.84zm34,0a7.72,7.72 0 0 1 8.22,0l7.78,4.84c2.55,1.57 4.11,4.49 4.11,7.64l0,9.68c0,3.15 -1.56,6.07 -4.11,7.64l-7.78,4.84a7.72,7.72 0 0 1 -8.22,0l-7.78,-4.84c-2.55,-1.58 -4.11,-4.49 -4.11,-7.64l0,-9.67c0,-3.16 1.56,-6.07 4.11,-7.65l7.78,-4.84zm34,0a7.72,7.72 0 0 1 8.22,0l7.78,4.84c2.55,1.57 4.11,4.49 4.11,7.64l0,9.68c0,3.15 -1.56,6.07 -4.11,7.64l-7.78,4.84a7.72,7.72 0 0 1 -8.22,0l-7.78,-4.84c-2.55,-1.58 -4.11,-4.49 -4.11,-7.64l0,-9.67c0,-3.16 1.56,-6.07 4.11,-7.65l7.78,-4.84zm34,0a7.72,7.72 0 0 1 8.22,0l7.78,4.84c2.55,1.57 4.11,4.49 4.11,7.64l0,9.68c0,3.15 -1.56,6.07 -4.11,7.64l-7.78,4.84a7.72,7.72 0 0 1 -8.22,0l-7.78,-4.84c-2.55,-1.58 -4.11,-4.49 -4.11,-7.64l0,-9.67c0,-3.16 1.56,-6.07 4.11,-7.65l7.78,-4.84zm34,0a7.72,7.72 0 0 1 8.22,0l7.78,4.84c2.55,1.57 4.11,4.49 4.11,7.64l0,9.68c0,3.15 -1.56,6.07 -4.11,7.64l-7.78,4.84a7.72,7.72 0 0 1 -8.22,0l-7.78,-4.84c-2.55,-1.58 -4.11,-4.49 -4.11,-7.64l0,-9.67c0,-3.16 1.56,-6.07 4.11,-7.65l7.78,-4.84zm34,0a7.72,7.72 0 0 1 8.22,0l7.78,4.84c2.55,1.57 4.11,4.49 4.11,7.64l0,9.68c0,3.15 -1.56,6.07 -4.11,7.64l-7.78,4.84a7.72,7.72 0 0 1 -8.22,0l-7.78,-4.84c-2.55,-1.58 -4.11,-4.49 -4.11,-7.64l0,-9.67c0,-3.16 1.56,-6.07 4.11,-7.65l7.78,-4.84zm34,0a7.72,7.72 0 0 1 8.22,0l7.78,4.84c2.55,1.57 4.11,4.49 4.11,7.64l0,9.68c0,3.15 -1.56,6.07 -4.11,7.64l-7.78,4.84a7.72,7.72 0 0 1 -8.22,0l-7.78,-4.84c-2.55,-1.58 -4.11,-4.49 -4.11,-7.64l0,-9.67c0,-3.16 1.56,-6.07 4.11,-7.65l7.78,-4.84zm34,0a7.72,7.72 0 0 1 8.22,0l7.78,4.84c2.55,1.57 4.11,4.49 4.11,7.64l0,9.68c0,3.15 -1.56,6.07 -4.11,7.64l-7.78,4.84a7.72,7.72 0 0 1 -8.22,0l-7.78,-4.84c-2.55,-1.58 -4.11,-4.49 -4.11,-7.64l0,-9.67c0,-3.16 1.56,-6.07 4.11,-7.65l7.78,-4.84zm34,0a7.72,7.72 0 0 1 8.22,0l7.78,4.84c2.55,1.57 4.11,4.49 4.11,7.64l0,9.68c0,3.15 -1.56,6.07 -4.11,7.64l-7.78,4.84a7.72,7.72 0 0 1 -8.22,0l-7.78,-4.84c-2.55,-1.58 -4.11,-4.49 -4.11,-7.64l0,-9.67c0,-3.16 1.56,-6.07 4.11,-7.65l7.78,-4.84zm34,0a7.72,7.72 0 0 1 8.22,0l7.78,4.84c2.54,1.57 4.11,4.49 4.11,7.64l0,9.68c0,3.15 -1.57,6.07 -4.11,7.64l-7.78,4.84a7.72,7.72 0 0 1 -8.22,0l-7.78,-4.84c-2.55,-1.58 -4.11,-4.49 -4.11,-7.64l0,-9.67c0,-3.16 1.56,-6.07 4.11,-7.65l7.78,-4.84zm34,0a7.72,7.72 0 0 1 8.22,0l7.78,4.84c2.54,1.57 4.11,4.49 4.11,7.64l0,9.68c0,3.15 -1.57,6.07 -4.11,7.64l-7.78,4.84a7.72,7.72 0 0 1 -8.22,0l-7.78,-4.84c-2.54,-1.58 -4.11,-4.49 -4.11,-7.64l0,-9.67c0,-3.16 1.57,-6.07 4.11,-7.65l7.78,-4.84zm34,34.64a7.72,7.72 0 0 0 8.22,0l7.78,-4.84c2.55,-1.58 4.11,-4.49 4.11,-7.64l0,-9.67c0,-3.16 -1.57,-6.07 -4.11,-7.65l-7.78,-4.84a7.72,7.72 0 0 0 -8.22,0l-7.78,4.84c-2.54,1.57 -4.11,4.49 -4.11,7.64l0,9.68c0,3.15 1.57,6.07 4.11,7.64l7.78,4.84zm34,0a7.72,7.72 0 0 0 8.22,0l7.78,-4.84c2.55,-1.58 4.11,-4.49 4.11,-7.64l0,-9.67c0,-3.16 -1.57,-6.07 -4.11,-7.65l-7.78,-4.84a7.72,7.72 0 0 0 -8.22,0l-7.78,4.84c-2.54,1.57 -4.11,4.49 -4.11,7.64l0,9.68c0,3.15 1.57,6.07 4.11,7.64l7.78,4.84zm34,0a7.72,7.72 0 0 0 8.22,0l7.78,-4.84c2.55,-1.58 4.11,-4.49 4.11,-7.64l0,-9.67c0,-3.16 -1.57,-6.07 -4.11,-7.65l-7.78,-4.84a7.72,7.72 0 0 0 -8.22,0l-7.78,4.84c-2.54,1.57 -4.11,4.49 -4.11,7.64l0,9.68c0,3.15 1.57,6.07 4.11,7.64l7.78,4.84zm34,0a7.72,7.72 0 0 0 8.22,0l7.78,-4.84c2.55,-1.58 4.11,-4.49 4.11,-7.64l0,-9.67c0,-3.16 -1.57,-6.07 -4.11,-7.65l-7.78,-4.84a7.72,7.72 0 0 0 -8.22,0l-7.78,4.84c-2.54,1.57 -4.11,4.49 -4.11,7.64l0,9.68c0,3.15 1.57,6.07 4.11,7.64l7.78,4.84zm34,0a7.72,7.72 0 0 0 8.22,0l7.78,-4.84c2.55,-1.58 4.11,-4.49 4.11,-7.64l0,-9.67c0,-3.16 -1.57,-6.07 -4.11,-7.65l-7.78,-4.84a7.72,7.72 0 0 0 -8.22,0l-7.78,4.84c-2.54,1.57 -4.11,4.49 -4.11,7.64l0,9.68c0,3.15 1.57,6.07 4.11,7.64l7.78,4.84zm34,0a7.72,7.72 0 0 0 8.22,0l7.78,-4.84c2.55,-1.58 4.11,-4.49 4.11,-7.64l0,-9.67c0,-3.16 -1.57,-6.07 -4.11,-7.65l-7.78,-4.84a7.72,7.72 0 0 0 -8.22,0l-7.78,4.84c-2.54,1.57 -4.11,4.49 -4.11,7.64l0,9.68c0,3.15 1.57,6.07 4.11,7.64l7.78,4.84zm34,0a7.72,7.72 0 0 0 8.22,0l7.78,-4.84c2.55,-1.58 4.11,-4.49 4.11,-7.64l0,-9.67c0,-3.16 -1.57,-6.07 -4.11,-7.65l-7.78,-4.84a7.72,7.72 0 0 0 -8.22,0l-7.78,4.84c-2.54,1.57 -4.11,4.49 -4.11,7.64l0,9.68c0,3.15 1.57,6.07 4.11,7.64l7.78,4.84zm34,0a7.72,7.72 0 0 0 8.22,0l7.78,-4.84c2.55,-1.58 4.11,-4.49 4.11,-7.64l0,-9.67c0,-3.16 -1.57,-6.07 -4.11,-7.65l-7.78,-4.84a7.72,7.72 0 0 0 -8.22,0l-7.78,4.84c-2.54,1.57 -4.11,4.49 -4.11,7.64l0,9.68c0,3.15 1.57,6.07 4.11,7.64l7.78,4.84zm34,0a7.72,7.72 0 0 0 8.22,0l7.78,-4.84c2.55,-1.58 4.11,-4.49 4.11,-7.64l0,-9.67c0,-3.16 -1.57,-6.07 -4.11,-7.65l-7.78,-4.84a7.72,7.72 0 0 0 -8.22,0l-7.78,4.84c-2.54,1.57 -4.11,4.49 -4.11,7.64l0,9.68c0,3.15 1.57,6.07 4.11,7.64l7.78,4.84zm34,0a7.72,7.72 0 0 0 8.22,0l7.78,-4.84c2.55,-1.58 4.11,-4.49 4.11,-7.64l0,-9.67c0,-3.16 -1.57,-6.07 -4.11,-7.65l-7.78,-4.84a7.72,7.72 0 0 0 -8.22,0l-7.78,4.84c-2.54,1.57 -4.11,4.49 -4.11,7.64l0,9.68c0,3.15 1.57,6.07 4.11,7.64l7.78,4.84zm34,0a7.72,7.72 0 0 0 8.22,0l7.78,-4.84c2.55,-1.58 4.11,-4.49 4.11,-7.64l0,-9.67c0,-3.16 -1.57,-6.07 -4.11,-7.65l-7.78,-4.84a7.72,7.72 0 0 0 -8.22,0l-7.78,4.84c-2.54,1.57 -4.11,4.49 -4.11,7.64l0,9.68c0,3.15 1.57,6.07 4.11,7.64l7.78,4.84zm34,0a7.72,7.72 0 0 0 8.22,0l7.78,-4.84c2.55,-1.58 4.11,-4.49 4.11,-7.64l0,-9.67c0,-3.16 -1.57,-6.07 -4.11,-7.65l-7.78,-4.84a7.72,7.72 0 0 0 -8.22,0l-7.78,4.84c-2.54,1.57 -4.11,4.49 -4.11,7.64l0,9.68c0,3.15 1.57,6.07 4.11,7.64l7.78,4.84zm34,0a7.72,7.72 0 0 0 8.22,0l7.78,-4.84c2.54,-1.58 4.11,-4.49 4.11,-7.64l0,-9.67c0,-3.16 -1.57,-6.07 -4.11,-7.65l-7.78,-4.84a7.72,7.72 0 0 0 -8.22,0l-7.78,4.84c-2.54,1.57 -4.11,4.49 -4.11,7.64l0,9.68c0,3.15 1.57,6.07 4.11,7.64l7.78,4.84zm34,0a7.73,7.73 0 0 0 8.22,0l7.78,-4.84c2.54,-1.58 4.11,-4.49 4.11,-7.64l0,-9.67c0,-3.16 -1.57,-6.07 -4.11,-7.65l-7.78,-4.84a7.73,7.73 0 0 0 -8.22,0l-7.78,4.84c-2.54,1.58 -4.11,4.49 -4.11,7.65l0,9.67c0,3.15 1.57,6.07 4.11,7.64l7.78,4.84zm34,0a7.73,7.73 0 0 0 8.22,0l7.78,-4.84c2.54,-1.58 4.11,-4.49 4.11,-7.64l0,-9.67c0,-3.16 -1.57,-6.07 -4.11,-7.65l-7.78,-4.84a7.73,7.73 0 0 0 -8.22,0l-7.78,4.84c-2.54,1.58 -4.11,4.49 -4.11,7.65l0,9.67c0,3.15 1.57,6.07 4.11,7.64l7.78,4.84zm34,0a7.73,7.73 0 0 0 8.22,0l7.78,-4.84c2.54,-1.58 4.11,-4.49 4.11,-7.64l0,-9.67c0,-3.16 -1.57,-6.07 -4.11,-7.65l-7.78,-4.84a7.73,7.73 0 0 0 -8.22,0l-7.78,4.84c-2.54,1.58 -4.11,4.49 -4.11,7.65l0,9.67c0,3.15 1.57,6.07 4.11,7.64l7.78,4.84zm-527,32a7.72,7.72 0 0 0 8.22,0l7.78,-4.84c2.55,-1.58 4.11,-4.49 4.11,-7.65l0,-9.67c0,-3.15 -1.57,-6.07 -4.11,-7.64l-7.78,-4.84a7.72,7.72 0 0 0 -8.22,0l-7.78,4.84c-2.54,1.58 -4.11,4.49 -4.11,7.64l0,9.68c0,3.15 1.57,6.07 4.11,7.64l7.78,4.84zm34,0a7.72,7.72 0 0 0 8.22,0l7.78,-4.84c2.55,-1.58 4.11,-4.49 4.11,-7.65l0,-9.67c0,-3.15 -1.57,-6.07 -4.11,-7.64l-7.78,-4.84a7.72,7.72 0 0 0 -8.22,0l-7.78,4.84c-2.54,1.58 -4.11,4.49 -4.11,7.64l0,9.68c0,3.15 1.57,6.07 4.11,7.64l7.78,4.84zm34,0a7.72,7.72 0 0 0 8.22,0l7.78,-4.84c2.55,-1.58 4.11,-4.49 4.11,-7.65l0,-9.67c0,-3.15 -1.57,-6.07 -4.11,-7.64l-7.78,-4.84a7.72,7.72 0 0 0 -8.22,0l-7.78,4.84c-2.54,1.58 -4.11,4.49 -4.11,7.64l0,9.68c0,3.15 1.57,6.07 4.11,7.64l7.78,4.84zm34,0a7.72,7.72 0 0 0 8.22,0l7.78,-4.84c2.55,-1.58 4.11,-4.49 4.11,-7.65l0,-9.67c0,-3.15 -1.57,-6.07 -4.11,-7.64l-7.78,-4.84a7.72,7.72 0 0 0 -8.22,0l-7.78,4.84c-2.54,1.58 -4.11,4.49 -4.11,7.64l0,9.68c0,3.15 1.57,6.07 4.11,7.64l7.78,4.84zm34,0a7.72,7.72 0 0 0 8.22,0l7.78,-4.84c2.55,-1.58 4.11,-4.49 4.11,-7.65l0,-9.67c0,-3.15 -1.57,-6.07 -4.11,-7.64l-7.78,-4.84a7.72,7.72 0 0 0 -8.22,0l-7.78,4.84c-2.54,1.58 -4.11,4.49 -4.11,7.64l0,9.68c0,3.15 1.57,6.07 4.11,7.64l7.78,4.84zm34,0a7.72,7.72 0 0 0 8.22,0l7.78,-4.84c2.55,-1.58 4.11,-4.49 4.11,-7.65l0,-9.67c0,-3.15 -1.57,-6.07 -4.11,-7.64l-7.78,-4.84a7.72,7.72 0 0 0 -8.22,0l-7.78,4.84c-2.54,1.58 -4.11,4.49 -4.11,7.64l0,9.68c0,3.15 1.57,6.07 4.11,7.64l7.78,4.84zm34,0a7.72,7.72 0 0 0 8.22,0l7.78,-4.84c2.55,-1.58 4.11,-4.49 4.11,-7.65l0,-9.67c0,-3.15 -1.57,-6.07 -4.11,-7.64l-7.78,-4.84a7.72,7.72 0 0 0 -8.22,0l-7.78,4.84c-2.54,1.58 -4.11,4.49 -4.11,7.64l0,9.68c0,3.15 1.57,6.07 4.11,7.64l7.78,4.84zm34,0a7.72,7.72 0 0 0 8.22,0l7.78,-4.84c2.55,-1.58 4.11,-4.49 4.11,-7.65l0,-9.67c0,-3.15 -1.57,-6.07 -4.11,-7.64l-7.78,-4.84a7.72,7.72 0 0 0 -8.22,0l-7.78,4.84c-2.54,1.58 -4.11,4.49 -4.11,7.64l0,9.68c0,3.15 1.57,6.07 4.11,7.64l7.78,4.84zm34,0a7.72,7.72 0 0 0 8.22,0l7.78,-4.84c2.55,-1.58 4.11,-4.49 4.11,-7.65l0,-9.67c0,-3.15 -1.57,-6.07 -4.11,-7.64l-7.78,-4.84a7.72,7.72 0 0 0 -8.22,0l-7.78,4.84c-2.54,1.58 -4.11,4.49 -4.11,7.64l0,9.68c0,3.15 1.57,6.07 4.11,7.64l7.78,4.84zm34,0a7.72,7.72 0 0 0 8.22,0l7.78,-4.84c2.55,-1.58 4.11,-4.49 4.11,-7.65l0,-9.67c0,-3.15 -1.57,-6.07 -4.11,-7.64l-7.78,-4.84a7.72,7.72 0 0 0 -8.22,0l-7.78,4.84c-2.54,1.58 -4.11,4.49 -4.11,7.64l0,9.68c0,3.15 1.57,6.07 4.11,7.64l7.78,4.84zm34,0a7.72,7.72 0 0 0 8.22,0l7.78,-4.84c2.55,-1.58 4.11,-4.49 4.11,-7.65l0,-9.67c0,-3.15 -1.57,-6.07 -4.11,-7.64l-7.78,-4.84a7.72,7.72 0 0 0 -8.22,0l-7.78,4.84c-2.54,1.58 -4.11,4.49 -4.11,7.64l0,9.68c0,3.15 1.57,6.07 4.11,7.64l7.78,4.84zm34,0a7.72,7.72 0 0 0 8.22,0l7.78,-4.84c2.55,-1.58 4.11,-4.49 4.11,-7.65l0,-9.67c0,-3.15 -1.57,-6.07 -4.11,-7.64l-7.78,-4.84a7.72,7.72 0 0 0 -8.22,0l-7.78,4.84c-2.54,1.58 -4.11,4.49 -4.11,7.64l0,9.68c0,3.15 1.57,6.07 4.11,7.64l7.78,4.84zm34,0a7.72,7.72 0 0 0 8.22,0l7.78,-4.84c2.55,-1.58 4.11,-4.49 4.11,-7.65l0,-9.67c0,-3.15 -1.57,-6.07 -4.11,-7.64l-7.78,-4.84a7.72,7.72 0 0 0 -8.22,0l-7.78,4.84c-2.54,1.58 -4.11,4.49 -4.11,7.64l0,9.68c0,3.15 1.57,6.07 4.11,7.64l7.78,4.84zm34,0a7.73,7.73 0 0 0 8.22,0l7.78,-4.84c2.54,-1.58 4.11,-4.49 4.11,-7.65l0,-9.67c0,-3.15 -1.57,-6.07 -4.11,-7.64l-7.78,-4.84a7.73,7.73 0 0 0 -8.22,0l-7.78,4.84c-2.54,1.58 -4.11,4.49 -4.11,7.64l0,9.67c0,3.16 1.57,6.07 4.11,7.65l7.78,4.84zm34,0a7.73,7.73 0 0 0 8.22,0l7.78,-4.84c2.54,-1.58 4.11,-4.49 4.11,-7.65l0,-9.67c0,-3.15 -1.57,-6.07 -4.11,-7.64l-7.78,-4.84a7.73,7.73 0 0 0 -8.22,0l-7.78,4.84c-2.54,1.58 -4.11,4.49 -4.11,7.64l0,9.67c0,3.16 1.57,6.07 4.11,7.65l7.78,4.84zm34,0a7.73,7.73 0 0 0 8.22,0l7.78,-4.84c2.54,-1.58 4.11,-4.49 4.11,-7.65l0,-9.67c0,-3.15 -1.57,-6.07 -4.11,-7.64l-7.78,-4.84a7.73,7.73 0 0 0 -8.22,0l-7.78,4.84c-2.54,1.58 -4.11,4.49 -4.11,7.64l0,9.67c0,3.16 1.57,6.07 4.11,7.65l7.78,4.84z" fill="#212224" id="svg_1"/>
 </g>
</svg>